<svg xmlns="http://www.w3.org/2000/svg" aria-hidden="true"
  style="position:absolute;width:0;height:0;overflow:hidden">
  <defs>
    <symbol  id="icon-right-3" viewBox="0 0 28 32">
      <path d="M5.918 0v4.827l15.586 11.112L5.918 27.051v4.827l22.317-15.939L5.918 0z" />
      <path d="M0 4.691v22.452L15.721 15.94 0 4.691z" />
      <path d="M3.43 18.49c-.35-.005-.66-.084-.931-.238s-.497-.357-.679-.609-.32-.522-.413-.812a2.963 2.963 0 0 1-.133-.861 2.864 2.864 0 0 1 .574-1.708c.191-.247.42-.443.686-.588a1.8 1.8 0 0 1 .896-.224c.359 0 .672.079.938.238.271.159.497.364.679.616s.317.525.406.819c.093.294.14.576.14.847 0 .303-.049.604-.147.903a2.648 2.648 0 0 1-.434.805 2.24 2.24 0 0 1-.679.588 1.916 1.916 0 0 1-.903.224zm-1.182-2.519c.005.196.03.392.077.588.051.191.124.369.217.532.098.163.222.296.371.399a.922.922 0 0 0 .518.147c.21 0 .389-.054.539-.161s.271-.245.364-.413c.098-.168.17-.347.217-.539s.07-.376.07-.553a2.25 2.25 0 0 0-.077-.581 1.786 1.786 0 0 0-.224-.539 1.203 1.203 0 0 0-.371-.392.87.87 0 0 0-.518-.154c-.205 0-.382.054-.532.161s-.273.245-.371.413a2.315 2.315 0 0 0-.28 1.092zM7.79 18.469c-.266 0-.508-.033-.728-.098a1.859 1.859 0 0 1-.567-.294 1.496 1.496 0 0 1-.378-.462l.504-.637c.047.103.121.203.224.301s.231.177.385.238.329.091.525.091c.191 0 .357-.028.497-.084s.247-.133.322-.231a.59.59 0 0 0 .119-.371.56.56 0 0 0-.147-.392c-.093-.107-.233-.189-.42-.245s-.415-.084-.686-.084h-.231v-.7h.245c.336 0 .604-.058.805-.175.205-.117.308-.282.308-.497a.545.545 0 0 0-.105-.336.618.618 0 0 0-.28-.217.952.952 0 0 0-.385-.077c-.233 0-.441.056-.623.168a1.09 1.09 0 0 0-.406.42l-.609-.679c.103-.149.243-.275.42-.378.177-.107.375-.191.595-.252.224-.061.455-.091.693-.091.331 0 .625.058.882.175.257.112.457.266.602.462s.217.42.217.672c0 .187-.04.357-.119.511-.075.154-.182.282-.322.385s-.306.177-.497.224c.205.033.385.11.539.231.159.117.28.266.364.448.089.177.133.371.133.581 0 .294-.084.543-.252.749a1.569 1.569 0 0 1-.672.476c-.28.112-.597.168-.952.168z" />
    </symbol>
    <symbol  id="icon-right-2" viewBox="0 0 29 32">
      <path  d="M6.037 0v4.846L21.935 16 6.037 27.154V32l22.764-16L6.037 0z"/>
      <path  d="M0 4.709v22.537L16.036 16 0 4.709z"/>
      <path  d="M3.499 18.56c-.357-.005-.673-.084-.949-.239s-.507-.358-.692-.611a2.872 2.872 0 0 1-.421-.815 2.955 2.955 0 0 1-.136-.864 2.825 2.825 0 0 1 .585-1.714c.195-.248.428-.445.699-.59.271-.15.576-.225.913-.225.366 0 .685.08.956.239.276.159.507.365.692.618s.324.527.414.822c.095.295.143.578.143.85 0 .304-.05.606-.15.906-.1.295-.247.564-.442.808-.19.244-.421.44-.692.59-.271.145-.578.22-.921.225zm-1.206-2.528c.005.197.031.393.079.59.052.192.126.37.221.534.1.164.226.297.378.4a.953.953 0 0 0 .528.148c.214 0 .397-.054.55-.162s.276-.246.371-.414c.1-.169.174-.349.221-.541s.071-.377.071-.555c0-.197-.026-.391-.079-.583a1.795 1.795 0 0 0-.228-.541 1.206 1.206 0 0 0-.378-.393.9.9 0 0 0-.528-.155c-.209 0-.39.054-.542.162s-.278.246-.378.414a2.334 2.334 0 0 0-.285 1.096zM6.297 18.49c0-.286.019-.536.057-.752.038-.22.098-.414.178-.583.086-.173.195-.325.328-.456s.297-.255.492-.372c.167-.094.338-.185.514-.274.181-.089.347-.183.5-.281.157-.098.283-.211.378-.337.1-.126.15-.281.15-.464 0-.14-.031-.26-.093-.358a.574.574 0 0 0-.257-.239.87.87 0 0 0-.4-.084c-.181 0-.35.033-.507.098-.152.061-.29.138-.414.232a2.547 2.547 0 0 0-.307.267l-.599-.618a2.5 2.5 0 0 1 .692-.527 2.639 2.639 0 0 1 1.256-.302c.371 0 .683.066.935.197.252.126.443.302.571.527.133.22.2.475.2.766 0 .211-.036.398-.107.562-.067.159-.159.3-.278.421s-.252.232-.4.33c-.147.094-.3.185-.457.274-.247.131-.447.246-.6.344s-.274.19-.364.274a1.165 1.165 0 0 0-.2.253c-.043.08-.081.164-.114.253h2.526v.85H6.294z"/>
    </symbol>
    <symbol  id="icon-right-1" viewBox="0 0 29 32">
      <path  d="M6.037 0v4.846L21.935 16 6.037 27.154V32l22.764-16L6.037 0z"/>
      <path  d="M0 4.709v22.537L16.036 16 0 4.709z" />
      <path  d="M4.155 18.56c-.358-.005-.675-.084-.952-.239s-.508-.359-.694-.613a2.886 2.886 0 0 1-.422-.817 2.935 2.935 0 0 1-.136-.866 2.837 2.837 0 0 1 .587-1.718 2.22 2.22 0 0 1 .701-.592c.272-.15.577-.225.916-.225.367 0 .687.08.959.239.277.16.508.366.694.62s.324.528.415.824c.095.296.143.58.143.852 0 .305-.05.608-.15.908-.1.296-.248.566-.444.81a2.272 2.272 0 0 1-.694.592c-.272.146-.58.221-.923.225zm-1.209-2.535c.005.197.031.394.079.592.052.192.126.371.222.535.1.164.227.298.379.401a.952.952 0 0 0 .53.148c.215 0 .398-.054.551-.162s.277-.246.372-.416c.1-.169.174-.35.222-.542s.072-.378.072-.556a2.2 2.2 0 0 0-.079-.585 1.778 1.778 0 0 0-.229-.542 1.212 1.212 0 0 0-.379-.394.903.903 0 0 0-.53-.155c-.21 0-.391.054-.544.162s-.279.247-.379.416a2.294 2.294 0 0 0-.287 1.098zM10.017 17.637v.852H7.14v-.852h.988v-3.254a.912.912 0 0 1-.193.19 2.712 2.712 0 0 1-.301.197c-.11.061-.224.113-.344.155a.917.917 0 0 1-.315.063v-.873c.129 0 .26-.033.394-.099a2.45 2.45 0 0 0 .758-.577h.98v4.197h.909z" />
    </symbol>
    <symbol id="icon-icon-order" viewBox="0 0 32 32">
      <path d="m14.594 0 15.229 2.177 2.175 15.231L17.856 31.55a1.54 1.54 0 0 1-2.176 0L.449 16.319a1.541 1.541 0 0 1 0-2.176L14.592 0zm4.351 13.055a3.084 3.084 0 0 0 2.176.901 3.085 3.085 0 0 0 2.175-.901 3.084 3.084 0 0 0 .901-2.176c0-.404-.08-.804-.234-1.178s-.381-.712-.667-.998a3.084 3.084 0 0 0-2.176-.901 3.074 3.074 0 0 0-3.077 3.078c0 .816.324 1.599.902 2.176z" />
    </symbol>
    <symbol id="icon-arrow" viewBox="0 0 22 32">
      <path  d="M12.445 16 0 3.555 3.555 0l16 16-16 16L0 28.445 12.445 16z" />
    </symbol>
    <symbol id="icon-credit-card" viewBox="0 0 32 32">
      <path d="M32 13.156v14.222c0 .377-.169.739-.469 1.006s-.707.417-1.131.417H1.6c-.424 0-.831-.15-1.131-.417S0 27.756 0 27.378V13.156h32zm0-2.845H0V4.622c0-.377.169-.739.469-1.006s.707-.417 1.131-.417h28.8c.424 0 .831.15 1.131.417S32 4.244 32 4.622v5.689zM20.8 21.689v2.844h6.4v-2.844h-6.4z"/>
    </symbol>
    <symbol id="icon-cash" viewBox="0 0 32 32">
      <path d="M16 32C7.163 32 0 24.837 0 16S7.163 0 16 0s16 7.163 16 16-7.163 16-16 16zm-5.6-12.8v3.2h4v3.2h3.2v-3.2h1.6a4.001 4.001 0 0 0 2.828-6.828A4 4 0 0 0 19.2 14.4h-6.4a.8.8 0 1 1 0-1.6h8.8V9.6h-4V6.4h-3.2v3.2h-1.6a4.003 4.003 0 0 0-4 4 4.001 4.001 0 0 0 4 4h6.4a.8.8 0 1 1 0 1.6h-8.8z" />
    </symbol>
    <symbol id="icon-icon-burger" viewBox="0 0 32 32">
      <path d="M28.8 32H3.2a1.6 1.6 0 0 1-1.6-1.6V1.6A1.6 1.6 0 0 1 3.2 0h25.6a1.6 1.6 0 0 1 1.6 1.6v28.8a1.6 1.6 0 0 1-1.6 1.6zM9.6 8v3.2h12.8V8H9.6zm0 6.4v3.2h12.8v-3.2H9.6zm0 6.4V24h8v-3.2h-8z"/>
    </symbol>
    <symbol id="icon-delivery" viewBox="0 0 32 32">
      <path  d="M21.333 0c.842 0 1.524.682 1.524 1.524v1.522l7.619.002v9.143l-3.078-.002 4.216 11.575a6.095 6.095 0 1 1-11.611 3.665h-6.48a6.098 6.098 0 0 1-11.885-.348A3.043 3.043 0 0 1 .001 24.38v-7.619h13.714c0 .781.588 1.425 1.346 1.514l.178.01h3.048c.781 0 1.425-.588 1.514-1.346l.01-.178V3.047H15.24V-.001h6.095zM7.619 22.857a3.048 3.048 0 1 0 0 6.096 3.048 3.048 0 0 0 0-6.096zm18.286 0a3.048 3.048 0 1 0 0 6.096 3.048 3.048 0 0 0 0-6.096zM12.191 3.048c.842 0 1.524.682 1.524 1.524v10.667H.001V4.572c0-.842.682-1.524 1.524-1.524h10.667zm15.238 3.047h-4.571v3.048h4.571V6.095zm-16.762 0H3.048v1.524h7.619V6.095z"/>
    </symbol>
    <symbol id="icon-icon-clock" viewBox="0 0 32 32">
      <path d="M16 32C7.163 32 0 24.837 0 16S7.163 0 16 0s16 7.163 16 16-7.163 16-16 16zm1.6-16V8h-3.2v11.2H24V16h-6.4z"/>
    </symbol>
    <symbol id="basket-header" viewBox="0 0 32 32">
      <path d="M4.886 7.014 0 2.132 2.131 0l4.884 4.886h22.959a1.507 1.507 0 0 1 1.441 1.949l.003-.011-3.616 12.051a1.51 1.51 0 0 1-1.442 1.075H7.897v3.012h16.571v3.013H6.391a1.506 1.506 0 0 1-1.505-1.507V7.014zm3.012.884v9.038h17.341l2.712-9.037H7.897zM7.145 32l-.054.001a2.26 2.26 0 1 1 .057-4.519h-.003a2.261 2.261 0 0 1 .003 4.52h-.003zm18.076 0a2.259 2.259 0 1 1 0-4.518 2.259 2.259 0 1 1 0 4.518z" />
    </symbol>
    <symbol id="telegram"  viewBox="0 0 32 32">
      <path d="M15.999 27.922a11.921 11.921 0 1 0 0-23.842 11.921 11.921 0 0 0 0 23.842zm0 2.98C7.769 30.902 1.097 24.23 1.097 16S7.769 1.098 15.999 1.098 30.901 7.77 30.901 16 24.23 30.902 15.999 30.902zm-4.634-13.158-3.723-1.161c-.805-.246-.809-.8.18-1.198l14.504-5.603c.842-.343 1.319.091 1.046 1.177l-2.469 11.653c-.173.83-.672 1.028-1.365.645l-3.802-2.814-1.772 1.711c-.182.176-.329.326-.61.364-.279.039-.508-.045-.677-.507l-1.296-4.278-.018.01z" />
    </symbol>
    <symbol id="instagram" viewBox="0 0 32 32">
      <path  d="M16 12a4.003 4.003 0 0 0-4 4 4.003 4.003 0 0 0 4 4 4 4 0 0 0 0-8zm0-2.666a6.67 6.67 0 0 1 4.714 11.381 6.67 6.67 0 0 1-9.428 0 6.67 6.67 0 0 1 0-9.428A6.67 6.67 0 0 1 16 9.334zM24.667 9a1.667 1.667 0 1 1-3.334 0 1.667 1.667 0 0 1 3.334 0zM16 5.334c-3.299 0-3.837.009-5.372.077-1.045.049-1.747.189-2.397.443a3.85 3.85 0 0 0-1.44.937 3.86 3.86 0 0 0-.939 1.44c-.253.653-.393 1.353-.441 2.397-.069 1.472-.077 1.987-.077 5.372 0 3.299.009 3.837.077 5.372.049 1.044.189 1.747.441 2.396.227.58.493.997.936 1.44.449.448.867.716 1.44.937.659.255 1.36.396 2.4.444 1.472.069 1.987.077 5.372.077 3.299 0 3.837-.009 5.372-.077 1.043-.049 1.745-.189 2.396-.441a3.892 3.892 0 0 0 1.44-.936c.449-.449.717-.867.939-1.44.253-.657.395-1.36.443-2.4.069-1.472.077-1.987.077-5.372 0-3.299-.009-3.837-.077-5.372-.049-1.043-.189-1.747-.443-2.397a3.883 3.883 0 0 0-.937-1.44 3.847 3.847 0 0 0-1.44-.939c-.653-.253-1.355-.393-2.397-.441-1.472-.069-1.987-.077-5.372-.077zm0-2.667c3.623 0 4.075.013 5.496.08 1.42.067 2.387.289 3.237.62a6.51 6.51 0 0 1 2.363 1.537 6.538 6.538 0 0 1 1.537 2.363c.329.849.553 1.817.62 3.237.063 1.421.08 1.873.08 5.496s-.013 4.075-.08 5.496c-.067 1.42-.291 2.387-.62 3.237a6.53 6.53 0 0 1-1.537 2.363 6.55 6.55 0 0 1-2.363 1.537c-.849.329-1.817.553-3.237.62-1.421.063-1.873.08-5.496.08s-4.075-.013-5.496-.08c-1.42-.067-2.387-.291-3.237-.62a6.53 6.53 0 0 1-2.363-1.537 6.53 6.53 0 0 1-1.537-2.363c-.331-.849-.553-1.817-.62-3.237-.063-1.421-.08-1.873-.08-5.496s.013-4.075.08-5.496c.067-1.421.289-2.387.62-3.237a6.516 6.516 0 0 1 1.537-2.363 6.53 6.53 0 0 1 2.363-1.537c.851-.331 1.816-.553 3.237-.62 1.421-.063 1.873-.08 5.496-.08z" />
    </symbol>
    <symbol id="search-header" viewBox="0 0 32 32">
      <path  d="M25.253 23.026 32 29.772 29.772 32l-6.746-6.747a14.026 14.026 0 0 1-8.827 3.101h-.022.001C6.352 28.354.001 22.003.001 14.177S6.352 0 14.178 0s14.177 6.351 14.177 14.177v.021c0 3.353-1.169 6.433-3.122 8.854l.021-.027zm-3.16-1.169a10.952 10.952 0 0 0 3.11-7.662v-.019.001-.004c0-6.088-4.935-11.023-11.023-11.023h-.007C8.085 3.15 3.15 8.085 3.15 14.173v.008c0 6.088 4.935 11.023 11.023 11.023h.022c2.981 0 5.684-1.186 7.664-3.113l-.003.002.236-.237z" />
    </symbol>
    <symbol id="person-header" viewBox="0 0 32 32">
      <path d="M3.2 32c0-6.733 5.458-12.191 12.191-12.191S27.582 25.267 27.582 32h-3.048a9.144 9.144 0 0 0-18.288 0H3.2zm12.191-13.714h-.005a9.14 9.14 0 0 1-9.139-9.139v-.008A9.14 9.14 0 0 1 15.386 0H15.395a9.14 9.14 0 0 1 9.139 9.139v.008a9.14 9.14 0 0 1-9.139 9.139h-.004zm0-3.048h.003a6.093 6.093 0 0 0 6.093-6.093v-.006a6.093 6.093 0 0 0-6.093-6.093h-.006a6.093 6.093 0 0 0-6.093 6.093v.006a6.093 6.093 0 0 0 6.093 6.093h.003z" />
    </symbol>
    <symbol id="like-header" viewBox="0 0 32 32">
      <path d="M16.001 4.046c3.758-3.374 9.567-3.263 13.187.365A9.567 9.567 0 0 1 32 11.2c0 2.458-.924 4.7-2.443 6.398l.008-.009-13.568 13.587L2.434 17.588a9.556 9.556 0 0 1-2.437-6.391 9.6 9.6 0 0 1 9.6-9.6c2.465 0 4.714.929 6.414 2.457l-.009-.008zm10.921 2.625a6.375 6.375 0 0 0-4.52-1.871 6.373 6.373 0 0 0-4.269 1.633l.006-.005-2.136 1.916-2.138-1.916A6.371 6.371 0 0 0 9.601 4.8a6.38 6.38 0 0 0-4.525 1.875A6.38 6.38 0 0 0 3.201 11.2c0 1.609.594 3.079 1.574 4.203l-.007-.008L16 26.646l11.232-11.249a6.367 6.367 0 0 0 1.569-4.198 6.38 6.38 0 0 0-1.878-4.529z" />
    </symbol>
  </defs>
</svg>